<?xml version="1.0" encoding="UTF-8" standalone="no"?>
<!-- Created with Inkscape (http://www.inkscape.org/) -->

<svg
   xmlns:dc="http://purl.org/dc/elements/1.1/"
   xmlns:cc="http://creativecommons.org/ns#"
   xmlns:rdf="http://www.w3.org/1999/02/22-rdf-syntax-ns#"
   xmlns:svg="http://www.w3.org/2000/svg"
   xmlns="http://www.w3.org/2000/svg"
   xmlns:sodipodi="http://sodipodi.sourceforge.net/DTD/sodipodi-0.dtd"
   xmlns:inkscape="http://www.inkscape.org/namespaces/inkscape"
   width="169.14565mm"
   height="173.36009mm"
   viewBox="0 0 169.14565 173.36009"
   version="1.1"
   id="svg8"
   inkscape:version="0.92.3 (2405546, 2018-03-11)"
   sodipodi:docname="logo.svg">
  <defs
     id="defs2" />
  <sodipodi:namedview
     id="base"
     pagecolor="#ffffff"
     bordercolor="#666666"
     borderopacity="1.0"
     inkscape:pageopacity="0.0"
     inkscape:pageshadow="2"
     inkscape:zoom="1.4"
     inkscape:cx="289.5753"
     inkscape:cy="402.95635"
     inkscape:document-units="mm"
     inkscape:current-layer="layer1"
     showgrid="false"
     inkscape:window-width="1720"
     inkscape:window-height="1373"
     inkscape:window-x="1711"
     inkscape:window-y="0"
     inkscape:window-maximized="0" />
  <metadata
     id="metadata5">
    <rdf:RDF>
      <cc:Work
         rdf:about="">
        <dc:format>image/svg+xml</dc:format>
        <dc:type
           rdf:resource="http://purl.org/dc/dcmitype/StillImage" />
        <dc:title></dc:title>
      </cc:Work>
    </rdf:RDF>
  </metadata>
  <g
     inkscape:label="Layer 1"
     inkscape:groupmode="layer"
     id="layer1"
     transform="translate(-21.560934,-32.437828)">
    <path
       style="opacity:1;fill:none;fill-opacity:0;fill-rule:evenodd;stroke:#000000;stroke-width:5.31265783;stroke-linecap:round;stroke-linejoin:round;stroke-miterlimit:4.0333333;stroke-dasharray:none;stroke-dashoffset:0;stroke-opacity:1"
       d="m 176.43701,36.031415 c 8.42752,0 6.84434,15.693192 6.84434,34.899528 v 30.666467 l 1.59283,34.72099 c 0.54445,11.86785 6.53687,52.21788 0.50295,64.96063 -3.20201,6.76216 -10.53311,-18.83338 -11.75495,-26.35683 -1.2478,-7.68327 1.59276,-45.30841 1.52644,-60.08065 l -8.18693,-9.97529 -1.13393,-14.113161 V 68.324465 c 0,-7.622004 3.1273,-32.29305 10.60925,-32.29305 z"
       id="rect4518-9"
       inkscape:connector-curvature="0"
       sodipodi:nodetypes="sscssscccss" />
    <rect
       style="opacity:1;fill:none;fill-opacity:0;fill-rule:evenodd;stroke:#000000;stroke-width:5.46986341;stroke-linecap:round;stroke-linejoin:round;stroke-miterlimit:4.0333333;stroke-dasharray:none;stroke-dashoffset:0;stroke-opacity:1"
       id="rect4518-8"
       width="80.275391"
       height="152.6026"
       x="71.766014"
       y="40.692669"
       ry="7.7429476"
       rx="6.2366071" />
    <path
       style="fill:none;stroke:#000000;stroke-width:5.56972933;stroke-linecap:butt;stroke-linejoin:miter;stroke-miterlimit:4;stroke-dasharray:none;stroke-opacity:1"
       d="m 73.636751,179.03015 c 77.108209,0 77.108209,0 77.108209,0"
       id="path4592"
       inkscape:connector-curvature="0" />
    <path
       style="fill:none;stroke:#000000;stroke-width:5.53805447;stroke-linecap:butt;stroke-linejoin:miter;stroke-miterlimit:4;stroke-dasharray:none;stroke-opacity:1"
       d="m 72.749927,52.181111 c 73.774523,0 77.217343,0 77.217343,0 v 0"
       id="path4594"
       inkscape:connector-curvature="0" />
    <rect
       style="opacity:1;fill:none;fill-opacity:0;fill-rule:evenodd;stroke:#000000;stroke-width:5.46986341;stroke-linecap:round;stroke-linejoin:round;stroke-miterlimit:4;stroke-dasharray:none;stroke-dashoffset:0;stroke-opacity:1"
       id="rect4596"
       width="14.752119"
       height="1.3956335"
       x="104.10255"
       y="185.68501"
       ry="0" />
    <rect
       style="opacity:1;fill:none;fill-opacity:0;fill-rule:evenodd;stroke:#000000;stroke-width:5;stroke-linecap:round;stroke-linejoin:round;stroke-miterlimit:4;stroke-dasharray:none;stroke-dashoffset:0;stroke-opacity:1"
       id="rect4598"
       width="0.75595242"
       height="0.94494045"
       x="88.265305"
       y="43.811302" />
    <rect
       style="opacity:1;fill:none;fill-opacity:0;fill-rule:evenodd;stroke:#000000;stroke-width:5;stroke-linecap:round;stroke-linejoin:round;stroke-miterlimit:4;stroke-dasharray:none;stroke-dashoffset:0;stroke-opacity:1"
       id="rect4602"
       width="0.75595242"
       height="0.56696427"
       x="135.73734"
       y="46.051487" />
    <rect
       style="opacity:1;fill:none;fill-opacity:0;fill-rule:evenodd;stroke:#000000;stroke-width:5;stroke-linecap:round;stroke-linejoin:round;stroke-miterlimit:4;stroke-dasharray:none;stroke-dashoffset:0;stroke-opacity:1"
       id="rect4604"
       width="13.607142"
       height="0.37797621"
       x="105.45535"
       y="47.161667" />
    <path
       style="opacity:1;fill:none;fill-opacity:0;fill-rule:evenodd;stroke:#000000;stroke-width:5;stroke-linecap:round;stroke-linejoin:round;stroke-miterlimit:4;stroke-dasharray:none;stroke-dashoffset:0;stroke-opacity:1"
       d="m 29.444243,39.021732 2.970755,33.072917 3.821202,-33.072917 4.603681,34.395833 3.469753,-34.395833 4.191481,32.940969 4.002494,-32.374005 c 0.285276,-2.307445 1.118162,1.902676 1.998609,7.990559 1.234165,8.533686 2.561781,20.756988 2.605562,23.890503 l 0.188988,13.526276 -9.260417,4.828323 c -0.667893,26.001213 -1.056954,51.407253 3.355929,77.247703 0.790319,4.62786 -1.238089,29.14184 -6.19076,33.44533 -6.081375,1.4436 -12.362739,-21.08324 -11.613457,-33.14469 3.097782,-25.65236 4.077127,-51.51656 2.138156,-77.672596 L 25.569977,83.923022 v -11.54488 c 0,0 -1.570109,-33.35641 3.874266,-33.35641 z"
       id="rect4624"
       inkscape:connector-curvature="0"
       sodipodi:nodetypes="scccccsssccsccccss" />
  </g>
</svg>
